# Blender 4.1.1
# www.blender.org
mtllib player.mtl
o 立方体
v -0.250000 -0.250000 0.250000
v -0.250000 0.250000 0.250000
v -0.250000 -0.250000 -0.250000
v -0.250000 0.250000 -0.250000
v 0.250000 -0.250000 0.250000
v 0.250000 0.250000 0.250000
v 0.250000 -0.250000 -0.250000
v 0.250000 0.250000 -0.250000
v -0.304784 -0.304784 -0.000000
v -0.304784 -0.000000 0.304784
v -0.304784 0.304784 0.000000
v -0.304784 -0.000000 -0.304784
v 0.000000 -0.304784 -0.304784
v -0.000000 0.304784 -0.304784
v 0.304784 -0.000000 -0.304784
v 0.304784 -0.304784 0.000000
v 0.304784 0.304784 0.000000
v 0.304784 -0.000000 0.304784
v -0.000000 -0.304784 0.304784
v -0.000000 0.304784 0.304784
v -0.419753 0.000000 0.000000
v 0.000000 0.000000 -0.419753
v 0.419753 0.000000 0.000000
v -0.000000 0.000000 0.419753
v 0.000000 -0.419753 0.000000
v -0.000000 0.419753 0.000000
vn -0.5774 -0.5774 0.5774
vn -0.5774 0.5774 0.5774
vn -0.5774 -0.5774 -0.5774
vn -0.5774 0.5774 -0.5774
vn 0.5774 -0.5774 0.5774
vn 0.5774 0.5774 0.5774
vn 0.5774 -0.5774 -0.5774
vn 0.5774 0.5774 -0.5774
vn -0.7071 -0.7071 -0.0000
vn -0.7071 -0.0000 0.7071
vn -0.7071 0.7071 -0.0000
vn -0.7071 -0.0000 -0.7071
vn -0.0000 -0.7071 -0.7071
vn -0.0000 0.7071 -0.7071
vn 0.7071 -0.0000 -0.7071
vn 0.7071 -0.7071 -0.0000
vn 0.7071 0.7071 -0.0000
vn 0.7071 -0.0000 0.7071
vn -0.0000 -0.7071 0.7071
vn -0.0000 0.7071 0.7071
vn -1.0000 -0.0000 -0.0000
vn -0.0000 -0.0000 -1.0000
vn 1.0000 -0.0000 -0.0000
vn -0.0000 -0.0000 1.0000
vn -0.0000 -1.0000 -0.0000
vn -0.0000 1.0000 -0.0000
vt 0.193209 0.000144
vt 0.289741 0.096677
vt 0.193209 0.096677
vt 0.386274 0.000144
vt 0.289741 0.000144
vt 0.386274 0.193209
vt 0.289741 0.193209
vt 0.193209 0.193209
vt 0.289741 0.289741
vt 0.193209 0.289741
vt 0.386274 0.386274
vt 0.289741 0.386274
vt 0.193209 0.386274
vt 0.289741 0.482806
vt 0.193209 0.482806
vt 0.386274 0.579338
vt 0.289741 0.579338
vt 0.193209 0.579338
vt 0.289741 0.675871
vt 0.193209 0.675871
vt 0.386274 0.772403
vt 0.289741 0.772403
vt 0.193209 0.772403
vt 0.000144 0.386274
vt 0.096677 0.482806
vt 0.000144 0.482806
vt 0.096677 0.386274
vt 0.096677 0.579338
vt 0.000144 0.579338
vt 0.482806 0.482806
vt 0.386274 0.482806
vt 0.579338 0.386274
vt 0.482806 0.386274
vt 0.579338 0.579338
vt 0.482806 0.579338
vt 0.386274 0.096677
vt 0.386274 0.289741
vt 0.386274 0.675871
vt 0.579338 0.482806
s 1
usemtl マテリアル.001
f 1/1/1 21/2/21 9/3/9
f 2/4/2 21/2/21 10/5/10
f 21/2/21 4/6/4 12/7/12
f 21/2/21 3/8/3 9/3/9
f 3/8/3 22/9/22 13/10/13
f 4/6/4 22/9/22 12/7/12
f 22/9/22 8/11/8 15/12/15
f 22/9/22 7/13/7 13/10/13
f 7/13/7 23/14/23 16/15/16
f 8/11/8 23/14/23 15/12/15
f 23/14/23 6/16/6 18/17/18
f 23/14/23 5/18/5 16/15/16
f 5/18/5 24/19/24 19/20/19
f 6/16/6 24/19/24 18/17/18
f 24/19/24 2/21/2 10/22/10
f 24/19/24 1/23/1 19/20/19
f 3/24/3 25/25/25 9/26/9
f 7/13/7 25/25/25 13/27/13
f 25/25/25 5/18/5 19/28/19
f 25/25/25 1/29/1 9/26/9
f 8/11/8 26/30/26 17/31/17
f 4/32/4 26/30/26 14/33/14
f 26/30/26 2/34/2 20/35/20
f 26/30/26 6/16/6 17/31/17
f 1/1/1 10/5/10 21/2/21
f 2/4/2 11/36/11 21/2/21
f 21/2/21 11/36/11 4/6/4
f 21/2/21 12/7/12 3/8/3
f 3/8/3 12/7/12 22/9/22
f 4/6/4 14/37/14 22/9/22
f 22/9/22 14/37/14 8/11/8
f 22/9/22 15/12/15 7/13/7
f 7/13/7 15/12/15 23/14/23
f 8/11/8 17/31/17 23/14/23
f 23/14/23 17/31/17 6/16/6
f 23/14/23 18/17/18 5/18/5
f 5/18/5 18/17/18 24/19/24
f 6/16/6 20/38/20 24/19/24
f 24/19/24 20/38/20 2/21/2
f 24/19/24 10/22/10 1/23/1
f 3/24/3 13/27/13 25/25/25
f 7/13/7 16/15/16 25/25/25
f 25/25/25 16/15/16 5/18/5
f 25/25/25 19/28/19 1/29/1
f 8/11/8 14/33/14 26/30/26
f 4/32/4 11/39/11 26/30/26
f 26/30/26 11/39/11 2/34/2
f 26/30/26 20/35/20 6/16/6
o 円錐.001
v 0.000000 0.489072 -0.482683
v 0.162789 0.521175 -0.423386
v 0.230218 0.598680 -0.280232
v 0.162789 0.676185 -0.137077
v 0.000000 0.708288 -0.077780
v -0.162789 0.676185 -0.137077
v -0.230218 0.598680 -0.280232
v -0.162789 0.521175 -0.423386
v 0.000000 0.876650 -0.694607
v 0.000000 0.291722 -0.464899
v 0.218170 0.334747 -0.385430
v 0.308539 0.438619 -0.193574
v 0.218170 0.542491 -0.001717
v 0.000000 0.585516 0.077752
v -0.218170 0.542491 -0.001717
v -0.308539 0.438619 -0.193574
v -0.218170 0.334747 -0.385430
v 0.000000 0.152862 -0.389720
v 0.218170 0.195888 -0.310251
v 0.308539 0.299760 -0.118394
v 0.218170 0.403632 0.073462
v 0.000000 0.446657 0.152931
v -0.218170 0.403632 0.073462
v -0.308539 0.299760 -0.118394
v -0.218170 0.195888 -0.310251
v 0.000000 -0.258355 -0.826455
v 0.628181 -0.134471 -0.597637
v 0.888381 0.164609 -0.045223
v 0.628181 0.463689 0.507192
v 0.000000 0.587572 0.736009
v -0.628181 0.463689 0.507192
v -0.888381 0.164609 -0.045223
v -0.628181 -0.134471 -0.597637
v 0.000000 0.276398 -0.493203
v 0.240929 0.323911 -0.405443
v 0.340725 0.438619 -0.193574
v 0.240929 0.553326 0.018296
v 0.000000 0.600840 0.106056
v -0.240929 0.553326 0.018296
v -0.340725 0.438619 -0.193574
v -0.240929 0.323911 -0.405443
v 0.000000 0.137539 -0.418024
v 0.240929 0.185052 -0.330264
v 0.340725 0.299760 -0.118394
v 0.240929 0.414467 0.093476
v 0.000000 0.461981 0.181235
v -0.240929 0.414467 0.093476
v -0.340725 0.299760 -0.118394
v -0.240929 0.185052 -0.330264
vn -0.0000 -0.2806 -0.9598
vn -0.0000 0.6144 -0.7890
vn 0.7013 -0.0486 -0.7112
vn 0.8973 0.4038 -0.1783
vn 0.5896 0.7536 0.2906
vn -0.0000 0.8806 0.4739
vn -0.5896 0.7536 0.2906
vn -0.8973 0.4038 -0.1783
vn -0.7013 -0.0486 -0.7112
vn -0.4398 0.7898 -0.4276
vn 0.9842 -0.1557 0.0843
vn 0.5490 -0.8156 -0.1827
vn 0.7764 -0.5542 0.3001
vn -0.3110 0.9378 -0.1541
vn -0.0000 0.5804 -0.8143
vn -0.0000 0.9992 -0.0408
vn 0.3110 0.9378 -0.1541
vn 0.4398 0.7898 -0.4276
vn 0.3110 0.6417 -0.7011
vn -0.3110 0.6417 -0.7011
vn 0.6959 0.1755 0.6963
vn -0.0000 0.3801 0.9250
vn 0.7031 0.2414 0.6688
vn 0.5490 0.8156 0.1827
vn 0.7764 0.5542 -0.3001
vn -0.0000 -0.6242 -0.7812
vn 0.6959 -0.4871 -0.5276
vn 0.5490 0.2929 -0.7828
vn -0.5490 -0.8156 -0.1827
vn -0.0000 -0.9239 -0.3827
vn -0.0000 0.1846 -0.9828
vn -0.9842 -0.1557 0.0843
vn -0.6959 -0.4871 -0.5276
vn -0.5490 0.2929 -0.7828
vn -0.9943 -0.0935 0.0506
vn -0.7031 -0.4281 -0.5678
vn 0.9943 -0.0935 0.0506
vn 0.7031 -0.4283 -0.5677
vn -0.6959 0.1755 0.6963
vn -0.0000 0.3129 0.9498
vn -0.0000 -0.5668 -0.8239
vn -0.7031 0.2412 0.6689
vn -0.7764 -0.5542 0.3001
vn -0.7764 0.5542 -0.3001
vn -0.5490 0.8156 0.1827
vn -0.0000 -0.1846 0.9828
vn -0.0000 0.9239 0.3827
vn -0.5490 -0.2929 0.7828
vn 0.5490 -0.2929 0.7828
vt 0.808088 0.217190
vt 0.795773 0.211594
vt 0.808547 0.204100
vt 0.800155 0.194308
vt 0.786851 0.193401
vt 0.776521 0.202807
vt 0.776063 0.216810
vt 0.785478 0.226431
vt 0.798563 0.226343
vt 0.778406 0.245100
vt 0.818954 0.138435
vt 0.856423 0.180624
vt 0.816914 0.143943
vt 0.758308 0.224860
vt 0.826999 0.224525
vt 0.757778 0.195981
vt 0.778464 0.175638
vt 0.807141 0.175575
vt 0.826794 0.196142
vt 0.806787 0.244624
vt 0.758835 0.137643
vt 0.579627 0.124838
vt 0.702834 0.000144
vt 0.776769 0.171548
vt 0.808563 0.172212
vt 0.864183 0.236124
vt 0.864454 0.176906
vt 0.830830 0.194495
vt 0.822814 0.275004
vt 0.858684 0.234185
vt 0.830356 0.225908
vt 0.766324 0.282085
vt 0.826683 0.283261
vt 0.808490 0.248661
vt 0.579627 0.674933
vt 0.579627 0.529190
vt 0.931482 0.674933
vt 0.880771 0.001739
vt 0.999856 0.122672
vt 0.721046 0.425845
vt 0.720944 0.244099
vt 0.720342 0.184389
vt 0.999856 0.294621
vt 0.887634 0.413881
vt 0.582960 0.308271
vt 0.768370 0.276609
vt 0.777027 0.248465
vt 0.754253 0.226553
vt 0.725916 0.186362
vt 0.754359 0.194582
vt 0.728922 0.240358
vt 0.762645 0.145824
vt 0.682683 0.426134
vt 0.828426 0.426134
vt 0.931482 0.529190
vt 0.828426 0.777989
vt 0.682683 0.777989
s 1
usemtl マテリアル.002
f 27/40/27 35/41/28 28/42/29
f 28/42/29 35/41/28 29/43/30
f 29/43/30 35/41/28 30/44/31
f 30/44/31 35/41/28 31/45/32
f 31/45/32 35/41/28 32/46/33
f 32/46/33 35/41/28 33/47/34
f 34/48/35 42/49/36 33/47/34
f 33/47/34 35/41/28 34/48/35
f 34/48/35 35/41/28 27/40/27
f 46/50/37 69/51/38 70/52/39
f 32/46/33 42/49/36 41/53/40
f 28/42/29 36/54/41 27/40/27
f 32/46/33 40/55/42 31/45/32
f 30/44/31 40/55/42 39/56/43
f 30/44/31 38/57/44 29/43/30
f 28/42/29 38/57/44 37/58/45
f 34/48/35 36/54/41 43/59/46
f 47/60/47 56/61/48 55/62/49
f 38/57/44 63/63/50 62/64/51
f 44/65/52 69/51/38 45/66/53
f 38/57/44 61/67/54 37/58/45
f 44/65/52 75/68/55 68/69/56
f 36/54/41 61/67/54 60/70/57
f 50/71/58 75/68/55 51/72/59
f 36/54/41 67/73/60 43/59/46
f 58/74/61 59/75/62 55/76/49
f 45/66/53 54/77/63 53/78/64
f 51/72/59 58/79/61 50/71/58
f 49/80/65 56/61/48 48/81/66
f 47/60/47 54/77/63 46/50/37
f 45/66/53 52/82/67 44/65/52
f 51/72/59 52/82/67 59/83/62
f 49/80/65 58/79/61 57/84/68
f 67/73/60 74/85/69 66/86/70
f 65/87/71 72/88/72 64/89/73
f 63/63/50 70/52/39 62/64/51
f 61/67/54 68/69/56 60/70/57
f 60/70/57 75/68/55 67/73/60
f 66/86/70 73/90/74 65/87/71
f 64/89/73 71/91/75 63/63/50
f 62/64/51 69/51/38 61/67/54
f 40/55/42 63/63/50 39/56/43
f 46/50/37 71/91/75 47/60/47
f 40/55/42 65/87/71 64/89/73
f 48/81/66 71/91/75 72/88/72
f 42/49/36 65/87/71 41/53/40
f 48/81/66 73/90/74 49/80/65
f 42/49/36 67/73/60 66/86/70
f 50/71/58 73/90/74 74/85/69
f 34/48/35 43/59/46 42/49/36
f 46/50/37 45/66/53 69/51/38
f 32/46/33 33/47/34 42/49/36
f 28/42/29 37/58/45 36/54/41
f 32/46/33 41/53/40 40/55/42
f 30/44/31 31/45/32 40/55/42
f 30/44/31 39/56/43 38/57/44
f 28/42/29 29/43/30 38/57/44
f 34/48/35 27/40/27 36/54/41
f 47/60/47 48/81/66 56/61/48
f 38/57/44 39/56/43 63/63/50
f 44/65/52 68/69/56 69/51/38
f 38/57/44 62/64/51 61/67/54
f 44/65/52 51/72/59 75/68/55
f 36/54/41 37/58/45 61/67/54
f 50/71/58 74/85/69 75/68/55
f 36/54/41 60/70/57 67/73/60
f 59/75/62 52/92/67 53/93/64
f 53/93/64 54/94/63 59/75/62
f 54/94/63 55/76/49 59/75/62
f 55/76/49 56/95/48 57/96/68
f 57/96/68 58/74/61 55/76/49
f 45/66/53 46/50/37 54/77/63
f 51/72/59 59/83/62 58/79/61
f 49/80/65 57/84/68 56/61/48
f 47/60/47 55/62/49 54/77/63
f 45/66/53 53/78/64 52/82/67
f 51/72/59 44/65/52 52/82/67
f 49/80/65 50/71/58 58/79/61
f 67/73/60 75/68/55 74/85/69
f 65/87/71 73/90/74 72/88/72
f 63/63/50 71/91/75 70/52/39
f 61/67/54 69/51/38 68/69/56
f 60/70/57 68/69/56 75/68/55
f 66/86/70 74/85/69 73/90/74
f 64/89/73 72/88/72 71/91/75
f 62/64/51 70/52/39 69/51/38
f 40/55/42 64/89/73 63/63/50
f 46/50/37 70/52/39 71/91/75
f 40/55/42 41/53/40 65/87/71
f 48/81/66 47/60/47 71/91/75
f 42/49/36 66/86/70 65/87/71
f 48/81/66 72/88/72 73/90/74
f 42/49/36 43/59/46 67/73/60
f 50/71/58 49/80/65 73/90/74
