# Blender 4.1.1
# www.blender.org
mtllib door.mtl
o 立方体
v -0.066090 -1.000000 0.500000
v -0.066090 1.000000 0.500000
v -0.066090 -1.000000 -0.500000
v -0.066090 1.000000 -0.500000
v 0.066090 -1.000000 0.500000
v 0.066090 1.000000 0.500000
v 0.066090 -1.000000 -0.500000
v 0.066090 1.000000 -0.500000
vn -1.0000 -0.0000 -0.0000
vn -0.0000 -0.0000 -1.0000
vn 1.0000 -0.0000 -0.0000
vn -0.0000 -0.0000 1.0000
vn -0.0000 -1.0000 -0.0000
vn -0.0000 1.0000 -0.0000
vt 0.625093 0.000185
vt 0.500186 0.125093
vt 0.500186 0.000185
vt 0.625093 0.125093
vt 0.500186 0.250000
vt 0.625093 0.250000
vt 0.500186 0.374907
vt 0.625093 0.374907
vt 0.500186 0.499815
vt 0.375278 0.374907
vt 0.375278 0.250000
vt 0.750000 0.250000
vt 0.625093 0.499815
vt 0.750000 0.374907
s 0
usemtl マテリアル
f 2/1/1 3/2/1 1/3/1
f 4/4/2 7/5/2 3/2/2
f 8/6/3 5/7/3 7/5/3
f 6/8/4 1/9/4 5/7/4
f 7/5/5 1/10/5 3/11/5
f 4/12/6 6/8/6 8/6/6
f 2/1/1 4/4/1 3/2/1
f 4/4/2 8/6/2 7/5/2
f 8/6/3 6/8/3 5/7/3
f 6/8/4 2/13/4 1/9/4
f 7/5/5 5/7/5 1/10/5
f 4/12/6 2/14/6 6/8/6
o 立方体.001
v -0.066090 -1.000000 -0.510000
v -0.066090 1.000000 -0.510000
v -0.066090 -1.000000 -1.510000
v -0.066090 1.000000 -1.510000
v 0.066090 -1.000000 -0.510000
v 0.066090 1.000000 -0.510000
v 0.066090 -1.000000 -1.510000
v 0.066090 1.000000 -1.510000
vn -1.0000 -0.0000 -0.0000
vn -0.0000 -0.0000 -1.0000
vn 1.0000 -0.0000 -0.0000
vn -0.0000 -0.0000 1.0000
vn -0.0000 -1.0000 -0.0000
vn -0.0000 1.0000 -0.0000
vt 0.250000 0.500185
vt 0.125093 0.625093
vt 0.125093 0.500185
vt 0.250000 0.625093
vt 0.125093 0.750000
vt 0.250000 0.750000
vt 0.125093 0.874907
vt 0.250000 0.874907
vt 0.125093 0.999815
vt 0.000185 0.874907
vt 0.000185 0.750000
vt 0.374907 0.750000
vt 0.250000 0.999815
vt 0.374907 0.874907
s 0
usemtl マテリアル
f 10/15/7 11/16/7 9/17/7
f 12/18/8 15/19/8 11/16/8
f 16/20/9 13/21/9 15/19/9
f 14/22/10 9/23/10 13/21/10
f 15/19/11 9/24/11 11/25/11
f 12/26/12 14/22/12 16/20/12
f 10/15/7 12/18/7 11/16/7
f 12/18/8 16/20/8 15/19/8
f 16/20/9 14/22/9 13/21/9
f 14/22/10 10/27/10 9/23/10
f 15/19/11 13/21/11 9/24/11
f 12/26/12 10/28/12 14/22/12
o 立方体.002
v -0.300000 -1.190000 0.743813
v -0.300000 1.190000 0.743813
v -0.300000 -1.190000 -1.736186
v -0.300000 1.190000 -1.736186
v 0.300000 -1.190000 0.743813
v 0.300000 1.190000 0.743813
v 0.300000 -1.190000 -1.736186
v 0.300000 1.190000 -1.736186
v -0.300000 1.000000 -0.500000
v -0.300000 1.000000 0.500000
v -0.300000 -1.000000 0.500000
v -0.300000 -1.000000 -0.500000
v 0.300000 1.000000 0.500000
v 0.300000 1.000000 -0.500000
v 0.300000 -1.000000 0.500000
v 0.300000 -1.000000 -0.500000
v -0.300000 -1.000000 -0.349016
v -0.300000 -1.000000 -0.500000
v -0.300000 1.000000 -0.500000
v -0.300000 0.698032 0.500000
v 0.300000 1.000000 -0.167853
v 0.300000 1.000000 -0.500000
v 0.300000 -1.000000 -0.500000
v 0.035830 1.000000 0.059716
v -0.112493 0.374977 0.500000
v -0.112493 -1.000000 -0.187489
v -0.300000 1.000000 -0.510000
v -0.300000 1.000000 -1.510000
v -0.300000 -1.000000 -0.510000
v -0.300000 -1.000000 -1.510000
v 0.300000 1.000000 -0.510000
v 0.300000 1.000000 -1.510000
v 0.300000 -1.000000 -0.510000
v 0.300000 -1.000000 -1.510000
v -0.300000 -1.000000 -0.257356
v -0.300000 1.000000 -0.257356
v -0.300000 -1.000000 -1.257356
v -0.300000 1.000000 -1.257356
v 0.300000 -1.000000 -0.257356
v 0.300000 1.000000 -0.257356
v 0.300000 -1.000000 -1.257356
v 0.300000 -1.000000 -0.589503
v 0.300000 1.000000 -1.257356
v 0.300000 1.000000 -0.925209
v -0.193599 1.000000 -0.500000
v -0.193598 -1.000000 -0.257356
v -0.154414 -1.000000 -0.257356
v 0.135763 1.000000 -0.783728
v -0.193599 1.000000 -0.500000
v 0.201265 -1.000000 -0.674558
vn -1.0000 -0.0000 -0.0000
vn -0.0000 -0.0000 -1.0000
vn 1.0000 -0.0000 -0.0000
vn -0.0000 -0.0000 1.0000
vn -0.0000 -1.0000 -0.0000
vn -0.0000 1.0000 -0.0000
vt 0.250000 0.125093
vt 0.125093 0.125093
vt 0.135064 0.113701
vt 0.250000 0.000185
vt 0.240028 0.012465
vt 0.224181 0.012465
vt 0.125093 0.250000
vt 0.250000 0.374907
vt 0.135064 0.362627
vt 0.240028 0.362627
vt 0.250000 0.250000
vt 0.240029 0.261392
vt 0.125093 0.499815
vt 0.125093 0.374907
vt 0.000185 0.374907
vt 0.000185 0.250000
vt 0.374907 0.250000
vt 0.439839 0.625093
vt 0.439839 0.519044
vt 0.419663 0.539220
vt 0.439839 0.500185
vt 0.699566 0.530493
vt 0.650670 0.530493
vt 0.655181 0.539220
vt 0.635005 0.519044
vt 0.635005 0.530493
vt 0.646454 0.530493
vt 0.699566 0.500185
vt 0.635005 0.500185
vt 0.440210 0.625093
vt 0.468635 0.570098
vt 0.440210 0.541673
vt 0.504771 0.625093
vt 0.504771 0.530493
vt 0.493322 0.500185
vt 0.440210 0.500185
vt 0.440210 0.530493
vt 0.504771 0.500185
vt 0.505142 0.625093
vt 0.569702 0.500185
vt 0.505142 0.500185
vt 0.439839 0.625464
vt 0.375278 0.657021
vt 0.439839 0.657021
vt 0.429215 0.729816
vt 0.439839 0.740440
vt 0.439839 0.750371
vt 0.634634 0.500185
vt 0.570073 0.531742
vt 0.634634 0.531742
vt 0.570073 0.625093
vt 0.587745 0.590902
vt 0.570073 0.573230
vt 0.443079 0.690024
vt 0.441830 0.625464
vt 0.441830 0.690024
vt 0.440210 0.678576
vt 0.441459 0.690024
vt 0.441459 0.625464
vt 0.240028 0.050610
vt 0.240028 0.062831
vt 0.125093 0.000185
vt 0.135064 0.062831
vt 0.135064 0.012465
vt 0.135064 0.050610
vt 0.135064 0.055227
vt 0.240028 0.063335
vt 0.135064 0.063335
vt 0.240029 0.100976
vt 0.240029 0.113701
vt 0.135064 0.100976
vt 0.135064 0.324482
vt 0.240028 0.312262
vt 0.240028 0.328990
vt 0.240028 0.324483
vt 0.135064 0.312262
vt 0.135064 0.311758
vt 0.240028 0.311758
vt 0.135064 0.307754
vt 0.135064 0.274117
vt 0.240028 0.290846
vt 0.240028 0.274117
vt 0.135064 0.261392
vt 0.250000 0.499815
vt 0.374907 0.374907
vt 0.375278 0.500185
vt 0.375278 0.625093
vt 0.635005 0.625093
vt 0.699566 0.625093
vt 0.569702 0.625093
vt 0.375278 0.625464
vt 0.375278 0.750371
vt 0.570073 0.500185
vt 0.634634 0.625093
vt 0.443079 0.625464
vt 0.440210 0.625464
vt 0.440210 0.690024
s 0
usemtl マテリアル
f 20/29/13 19/30/13 46/31/13
f 18/32/13 26/33/13 36/34/13
f 20/29/14 23/35/14 19/30/14
f 22/36/15 31/37/15 29/38/15
f 23/35/15 24/39/15 48/40/15
f 22/36/16 17/41/16 21/42/16
f 23/35/17 17/43/17 19/44/17
f 20/45/18 22/36/18 24/39/18
f 26/33/13 18/32/13 52/88/13
f 18/32/13 20/29/13 25/89/13
f 52/88/13 18/32/13 25/89/13
f 19/30/13 17/90/13 28/91/13
f 17/90/13 27/92/13 51/93/13
f 17/90/13 51/93/13 33/94/13
f 17/90/13 33/94/13 28/91/13
f 35/89/18 25/89/18 20/29/18
f 43/95/13 35/89/13 20/29/13
f 19/30/13 28/91/13 34/91/13
f 19/30/13 34/91/13 45/96/13
f 54/97/13 43/95/13 20/29/13
f 44/98/13 54/97/13 20/29/13
f 19/30/13 45/96/13 53/99/13
f 46/31/13 44/98/13 20/29/13
f 19/30/13 53/99/13 46/31/13
f 36/34/13 27/92/13 17/90/13
f 17/90/13 18/32/13 36/34/13
f 20/29/14 24/39/14 23/35/14
f 22/36/15 21/42/15 31/37/15
f 55/100/15 31/37/15 21/42/15
f 24/39/15 22/36/15 30/101/15
f 22/36/15 29/38/15 37/102/15
f 22/36/15 37/102/15 56/103/15
f 55/100/15 21/42/15 32/104/15
f 21/42/15 23/35/15 32/104/15
f 22/36/15 56/103/15 30/101/15
f 39/104/18 32/104/18 23/35/18
f 49/105/15 39/104/15 23/35/15
f 24/39/15 30/101/15 38/101/15
f 24/39/15 38/101/15 47/106/15
f 58/107/15 49/105/15 23/35/15
f 57/108/15 58/107/15 23/35/15
f 24/39/15 47/106/15 60/109/15
f 24/39/15 60/109/15 59/110/15
f 50/111/15 57/108/15 23/35/15
f 24/39/15 59/110/15 48/40/15
f 48/40/15 50/111/15 23/35/15
f 22/36/16 18/112/16 17/41/16
f 23/35/17 21/42/17 17/43/17
f 20/45/18 18/113/18 22/36/18
usemtl 
f 27/46/14 36/47/14 41/48/14
f 26/49/14 41/48/14 36/47/14
f 55/50/18 63/51/18 42/52/18
f 33/53/18 51/54/18 62/55/18
f 32/56/18 63/51/18 55/50/18
f 63/51/18 62/55/18 42/52/18
f 62/55/18 28/57/18 33/53/18
f 29/58/17 40/59/17 37/60/17
f 40/59/17 26/61/17 52/62/17
f 65/63/17 30/64/17 56/65/17
f 41/48/14 26/49/14 29/114/14
f 29/114/14 31/115/14 41/48/14
f 31/115/14 27/46/14 41/48/14
f 42/52/18 62/55/18 27/116/18
f 62/55/18 51/54/18 27/116/18
f 27/116/18 31/117/18 42/52/18
f 31/117/18 55/50/18 42/52/18
f 32/56/18 28/57/18 63/51/18
f 62/55/18 63/51/18 28/57/18
f 56/65/17 37/60/17 40/59/17
f 40/59/17 29/58/17 26/61/17
f 52/62/17 56/65/17 40/59/17
f 56/65/17 52/62/17 65/63/17
f 52/62/17 25/66/17 65/63/17
usemtl 
f 28/57/18 39/56/18 34/57/18
f 65/63/17 35/66/17 61/63/17
f 30/64/17 61/63/17 38/64/17
f 46/67/16 48/68/16 44/69/16
f 50/70/18 53/71/18 57/72/18
f 66/73/18 58/74/18 57/72/18
f 49/75/18 58/74/18 66/73/18
f 44/76/17 59/77/17 54/78/17
f 47/79/17 64/80/17 60/81/17
f 59/77/17 60/81/17 64/80/17
f 34/82/18 49/83/18 45/84/18
f 61/85/17 43/86/17 47/87/17
f 28/57/18 32/56/18 39/56/18
f 65/63/17 25/66/17 35/66/17
f 30/64/17 65/63/17 61/63/17
f 46/67/16 50/118/16 48/68/16
f 50/70/18 46/119/18 53/71/18
f 57/72/18 53/71/18 66/73/18
f 53/71/18 45/120/18 66/73/18
f 45/120/18 49/75/18 66/73/18
f 44/76/17 48/121/17 59/77/17
f 47/79/17 43/122/17 64/80/17
f 43/122/17 54/78/17 64/80/17
f 54/78/17 59/77/17 64/80/17
f 34/82/18 39/123/18 49/83/18
f 47/87/17 38/124/17 61/85/17
f 61/85/17 35/125/17 43/86/17
