# Blender 4.1.1
# www.blender.org
mtllib old.ghost.mtl
o 胴体
v -0.500000 -0.570916 0.500000
v -0.500000 0.525467 0.608092
v -0.500000 -0.570917 -0.500000
v -0.500000 0.570917 -0.500000
v 0.500000 -0.570916 0.500000
v 0.500000 0.525467 0.608092
v 0.500000 -0.570917 -0.500000
v 0.500000 0.570916 -0.500000
v -0.609568 -0.696025 -0.000000
v -0.609568 -0.000000 0.609568
v -0.609568 0.696025 0.000000
v -0.609568 -0.000000 -0.609568
v 0.000000 -0.696025 -0.609568
v -0.000000 0.696025 -0.609568
v 0.609568 -0.000000 -0.609568
v 0.609568 -0.696025 0.000000
v 0.609568 0.696025 0.000000
v 0.609568 -0.000000 0.609568
v -0.000000 -0.696025 0.609568
v -0.000000 0.650575 0.771523
v -0.839506 0.000000 0.000000
v 0.000000 0.000000 -0.839506
v 0.839506 0.000000 0.000000
v -0.000000 0.000000 0.839506
v 0.000000 -1.558751 -0.921652
v -0.000000 0.958576 0.000000
vn -0.6149 -0.4938 0.6149
vn -0.6212 0.4644 0.6312
vn -0.6908 -0.2138 -0.6908
vn -0.6012 0.5265 -0.6012
vn 0.6149 -0.4938 0.6149
vn 0.6212 0.4644 0.6312
vn 0.6908 -0.2138 -0.6908
vn 0.6012 0.5265 -0.6012
vn -0.8498 -0.5243 0.0532
vn -0.7278 -0.0470 0.6841
vn -0.7534 0.6575 -0.0069
vn -0.7071 -0.0000 -0.7071
vn -0.0000 -0.1851 -0.9827
vn -0.0000 0.6588 -0.7523
vn 0.7071 -0.0000 -0.7071
vn 0.8498 -0.5243 0.0532
vn 0.7534 0.6575 -0.0069
vn 0.7278 -0.0470 0.6841
vn -0.0000 -0.6210 0.7838
vn -0.0000 0.5685 0.8227
vn -1.0000 -0.0039 -0.0045
vn -0.0000 -0.0000 -1.0000
vn 1.0000 -0.0039 -0.0045
vn -0.0000 -0.0927 0.9957
vn -0.0000 -0.8390 -0.5442
vn -0.0000 1.0000 -0.0037
vt 0.208365 0.623014
vt 0.253895 0.635923
vt 0.230621 0.683946
vt 0.181805 0.662192
vt 0.292920 0.653485
vt 0.278028 0.708964
vt 0.248842 0.746405
vt 0.209680 0.727026
vt 0.170346 0.708180
vt 0.189205 0.769008
vt 0.142115 0.746244
vt 0.236257 0.792172
vt 0.207677 0.830136
vt 0.168883 0.810446
vt 0.129891 0.791976
vt 0.149389 0.849645
vt 0.111027 0.829012
vt 0.188812 0.869339
vt 0.162156 0.914890
vt 0.128229 0.891417
vt 0.088280 0.868525
vt 0.102261 0.936787
vt 0.054512 0.904680
vt 0.145702 0.962813
vt 0.111206 0.999857
vt 0.069312 0.984023
vt 0.033707 0.949611
vt 0.065285 0.743537
vt 0.103712 0.759700
vt 0.085519 0.784012
vt 0.023887 0.769696
vt 0.035531 0.855506
vt 0.000143 0.816613
vt 0.253908 0.842453
vt 0.231089 0.891117
vt 0.292920 0.870123
vt 0.278803 0.915819
vt 0.244929 0.962730
vt 0.197096 0.949954
s 1
usemtl マテリアル
f 1/1/1 10/2/10 21/3/21 9/4/9
f 10/2/10 2/5/2 11/6/11 21/3/21
f 21/3/21 11/6/11 4/7/4 12/8/12
f 9/4/9 21/3/21 12/8/12 3/9/3
f 3/9/3 12/8/12 22/10/22 13/11/13
f 12/8/12 4/7/4 14/12/14 22/10/22
f 22/10/22 14/12/14 8/13/8 15/14/15
f 13/11/13 22/10/22 15/14/15 7/15/7
f 7/15/7 15/14/15 23/16/23 16/17/16
f 15/14/15 8/13/8 17/18/17 23/16/23
f 23/16/23 17/18/17 6/19/6 18/20/18
f 16/17/16 23/16/23 18/20/18 5/21/5
f 5/21/5 18/20/18 24/22/24 19/23/19
f 18/20/18 6/19/6 20/24/20 24/22/24
f 24/22/24 20/24/20 2/25/2 10/26/10
f 19/23/19 24/22/24 10/26/10 1/27/1
f 3/28/3 13/29/13 25/30/25 9/31/9
f 13/29/13 7/15/7 16/17/16 25/30/25
f 25/30/25 16/17/16 5/21/5 19/32/19
f 9/31/9 25/30/25 19/32/19 1/33/1
f 8/13/8 14/34/14 26/35/26 17/18/17
f 14/34/14 4/36/4 11/37/11 26/35/26
f 26/35/26 11/37/11 2/38/2 20/39/20
f 17/18/17 26/35/26 20/39/20 6/19/6
o 左手
v 0.560667 -0.220301 0.372219
v 0.560667 -0.344731 0.372219
v 0.565360 -0.222760 0.810220
v 0.554852 -0.367442 0.810220
v 0.399069 -0.220301 0.372219
v 0.399069 -0.344731 0.372219
v 0.394376 -0.222760 0.810220
v 0.404884 -0.367442 0.810220
v 0.502164 -0.591357 0.992480
v 0.576759 -0.390705 0.992480
v 0.382977 -0.390705 0.992480
v 0.457572 -0.591357 0.992480
vn 0.7126 0.7016 0.0042
vn 0.7246 -0.6883 -0.0341
vn 0.6787 0.7052 0.2049
vn 0.8061 -0.5528 -0.2113
vn -0.7126 0.7016 0.0042
vn -0.7246 -0.6883 -0.0341
vn -0.6787 0.7052 0.2049
vn -0.8061 -0.5528 -0.2113
vn 0.4323 -0.8981 0.0805
vn 0.9426 0.0391 0.3317
vn -0.9426 0.0391 0.3317
vn -0.4323 -0.8981 0.0805
vt 0.000143 0.043366
vt 0.481265 0.000143
vt 0.236668 0.296462
vt 0.231893 0.302843
vt 0.239831 0.302126
vt 0.240389 0.308531
vt 0.238686 0.301938
vt 0.239076 0.302294
vt 0.481265 0.622729
vt 0.039139 0.554891
vt 0.238076 0.300954
vt 0.238292 0.301481
s 1
f 27/40/27 29/43/29 30/42/30 28/41/28
f 34/44/34 38/47/38 37/46/37 33/45/33
f 33/45/33 31/49/31 32/48/32 34/44/34
f 29/43/29 27/40/27 31/49/31 33/45/33
f 34/44/34 32/48/32 28/41/28 30/42/30
f 36/50/36 37/46/37 38/47/38 35/51/35
f 33/45/33 37/46/37 36/50/36 29/43/29
f 30/42/30 35/51/35 38/47/38 34/44/34
f 29/43/29 36/50/36 35/51/35 30/42/30
o 右手
v -0.399069 -0.220301 0.372219
v -0.399069 -0.344731 0.372219
v -0.394376 -0.222760 0.810220
v -0.404884 -0.367442 0.810220
v -0.560667 -0.220301 0.372219
v -0.560667 -0.344731 0.372219
v -0.565360 -0.222760 0.810220
v -0.554852 -0.367442 0.810220
v -0.457572 -0.591357 0.992480
v -0.382977 -0.390705 0.992480
v -0.576759 -0.390705 0.992480
v -0.502164 -0.591357 0.992480
vn 0.7126 0.7016 0.0042
vn 0.7246 -0.6883 -0.0341
vn 0.6787 0.7052 0.2049
vn 0.8061 -0.5528 -0.2113
vn -0.7126 0.7016 0.0042
vn -0.7246 -0.6883 -0.0341
vn -0.6787 0.7052 0.2049
vn -0.8061 -0.5528 -0.2113
vn 0.4323 -0.8981 0.0805
vn 0.9426 0.0391 0.3317
vn -0.9426 0.0391 0.3317
vn -0.4323 -0.8981 0.0805
vt 0.481550 0.043366
vt 0.962673 0.000143
vt 0.718075 0.296462
vt 0.713301 0.302843
vt 0.721239 0.302126
vt 0.721797 0.308531
vt 0.720094 0.301938
vt 0.720484 0.302294
vt 0.962673 0.622729
vt 0.520547 0.554891
vt 0.719484 0.300954
vt 0.719700 0.301481
s 1
f 39/52/39 41/55/41 42/54/42 40/53/40
f 46/56/46 50/59/50 49/58/49 45/57/45
f 45/57/45 43/61/43 44/60/44 46/56/46
f 41/55/41 39/52/39 43/61/43 45/57/45
f 46/56/46 44/60/44 40/53/40 42/54/42
f 48/62/48 49/58/49 50/59/50 47/63/47
f 45/57/45 49/58/49 48/62/48 41/55/41
f 42/54/42 47/63/47 50/59/50 46/56/46
f 41/55/41 48/62/48 47/63/47 42/54/42
o 円
v -0.406291 0.675971 -0.465603
v -0.485775 0.776089 -0.109919
v -0.280699 0.862111 0.195689
v 0.088807 0.883648 0.272199
v 0.406291 0.828082 0.074794
v 0.485775 0.727964 -0.280890
v 0.280699 0.641942 -0.586498
v -0.088807 0.620406 -0.663009
v 0.224983 1.875514 -0.849945
v 0.224983 1.875514 -0.849945
v 0.224983 1.875514 -0.849945
v 0.224983 1.875514 -0.849945
v 0.224983 1.875514 -0.849945
v 0.224983 1.875514 -0.849945
v 0.224983 1.875514 -0.849945
v 0.224983 1.875514 -0.849945
v 0.224983 1.875514 -0.849945
v 0.367064 1.011355 -0.338113
v 0.261421 1.329950 -0.424092
v 0.213035 1.622934 -0.588956
v 0.159832 1.596495 -0.673441
v 0.156602 1.285751 -0.581116
v 0.212103 0.946355 -0.569038
v 0.067105 1.128993 0.079815
v 0.056646 1.410259 -0.138781
v 0.100499 1.670224 -0.433050
v 0.187977 1.654366 -0.488911
v 0.220012 1.381525 -0.240862
v 0.307004 1.087007 -0.069349
v -0.367064 1.047719 -0.208923
v -0.237834 1.355134 -0.334621
v -0.054292 1.641248 -0.535992
v 0.000613 1.664557 -0.453185
v -0.132994 1.399325 -0.177626
v -0.212103 1.112720 0.022002
v 0.058244 1.593958 -0.691898
v -0.033059 1.274825 -0.619931
v -0.067105 0.930081 -0.626852
v -0.307004 0.972068 -0.477687
v -0.196445 1.303567 -0.517821
v -0.030930 1.613388 -0.634492
v -1.170360 0.236346 -0.890251
v -1.399321 0.524744 0.134330
v -0.808579 0.772540 1.014662
v 0.255818 0.834577 1.235058
v 1.170360 0.674515 0.666414
v 1.399321 0.386116 -0.358168
v 0.808579 0.138321 -1.238500
v -0.255818 0.076284 -1.458896
v -0.535619 0.767630 -0.098072
v -0.447980 0.657239 -0.490252
v -0.309500 0.862479 0.238894
v 0.097920 0.886225 0.323255
v 0.447980 0.824958 0.105594
v 0.535619 0.714567 -0.286585
v 0.309500 0.619718 -0.623551
v -0.097920 0.595972 -0.707912
v 0.231338 0.951783 -0.599490
v 0.334846 1.105191 -0.054485
v -0.231338 1.133237 0.045150
v -0.073191 0.934034 -0.662546
v 0.400352 1.022679 -0.347623
v 0.073191 1.150986 0.108207
v -0.400352 1.062341 -0.206717
v -0.334846 0.979829 -0.499854
vn -0.8181 0.4315 0.3801
vn -0.4526 -0.7390 -0.4990
vn 0.5473 -0.8268 -0.1301
vn -0.1622 0.5543 0.8164
vn -0.9687 -0.1547 -0.1940
vn 0.1331 -0.9043 -0.4056
vn 0.7967 -0.5051 0.3318
vn 0.5566 0.1309 0.8204
vn -0.0000 0.9626 -0.2710
vn -0.2304 0.9220 -0.3110
vn 0.5188 -0.0691 0.8521
vn 0.5382 0.0328 0.8422
vn -0.1279 0.8818 -0.4539
vn 0.9198 -0.2718 0.2830
vn 0.8839 -0.3558 0.3035
vn 0.3325 -0.9422 0.0421
vn 0.1951 -0.5968 -0.7783
vn 0.1730 -0.7505 -0.6378
vn -0.0832 -0.7791 0.6213
vn -0.9332 -0.3409 -0.1135
vn -0.9570 -0.2470 -0.1522
vn 0.0496 0.8730 -0.4851
vn -0.2019 0.0011 0.9794
vn -0.1977 0.2751 0.9409
vn 0.1980 0.9008 -0.3864
vn 0.7830 -0.4868 -0.3874
vn 0.7033 -0.6512 -0.2852
vn 0.0832 -0.9888 -0.1237
vn -0.5113 -0.5397 -0.6688
vn -0.4958 -0.6141 -0.6141
vn 0.2304 0.9489 -0.2156
vn -0.8106 -0.1129 0.5746
vn -0.8468 0.1536 0.5092
vn -0.2839 -0.8563 0.4315
vn -0.1834 -0.9829 -0.0183
vn 0.2839 -0.9556 0.0785
vn -0.0711 -0.8164 0.5731
vn -0.3304 -0.9252 0.1866
vn 0.0711 -0.9955 -0.0631
vn 0.3304 -0.8867 0.3234
vn 0.1834 -0.8290 0.5283
vn 0.5028 -0.1510 0.8511
vn 0.9059 -0.3091 0.2894
vn 0.1949 -0.6074 -0.7702
vn -0.9059 -0.4147 -0.0857
vn -0.1949 -0.1164 0.9739
vn 0.7784 -0.4981 -0.3821
vn -0.5028 -0.5728 -0.6474
vn -0.7784 -0.2257 0.5858
vn -0.2148 -0.9741 -0.0713
vn -0.3325 -0.8258 0.4556
vn -0.1980 0.9701 -0.1402
vn 0.3870 -0.8614 0.3290
vn -0.0496 0.9979 -0.0415
vn 0.1279 0.9891 -0.0728
vn -0.3870 -0.9065 0.1687
vn 0.2148 -0.7939 0.5689
vt 0.000000 0.000000
s 0
usemtl マテリアル.001
f 71/64/51 70/64/51 64/64/51 65/64/51
f 77/64/52 76/64/52 62/64/52 63/64/52
f 83/64/53 82/64/53 60/64/53 61/64/53
f 86/64/54 71/64/54 65/64/54 66/64/54
f 70/64/55 77/64/55 63/64/55 64/64/55
f 76/64/56 83/64/56 61/64/56 62/64/56
f 82/64/57 91/64/57 59/64/57 60/64/57
f 91/64/58 86/64/58 66/64/58 59/64/58
f 66/64/59 65/64/59 67/64/59 59/64/59
f 65/64/59 64/64/59 63/64/59 67/64/59
f 59/64/59 67/64/59 61/64/59 60/64/59
f 67/64/59 63/64/59 62/64/59 61/64/59
f 52/64/60 51/64/60 101/64/60 100/64/60
f 89/64/61 88/64/61 87/64/61 90/64/61
f 90/64/62 87/64/62 86/64/62 91/64/62
f 51/64/63 58/64/63 107/64/63 101/64/63
f 80/64/64 89/64/64 90/64/64 81/64/64
f 81/64/65 90/64/65 91/64/65 82/64/65
f 74/64/67 85/64/67 84/64/67 75/64/67
f 75/64/68 84/64/68 83/64/68 76/64/68
f 68/64/70 79/64/70 78/64/70 69/64/70
f 69/64/71 78/64/71 77/64/71 70/64/71
f 58/64/72 57/64/72 106/64/72 107/64/72
f 88/64/73 73/64/73 72/64/73 87/64/73
f 87/64/74 72/64/74 71/64/74 86/64/74
f 57/64/75 56/64/75 105/64/75 106/64/75
f 85/64/76 80/64/76 81/64/76 84/64/76
f 84/64/77 81/64/77 82/64/77 83/64/77
f 79/64/79 74/64/79 75/64/79 78/64/79
f 78/64/80 75/64/80 76/64/80 77/64/80
f 56/64/81 55/64/81 104/64/81 105/64/81
f 73/64/82 68/64/82 69/64/82 72/64/82
f 72/64/83 69/64/83 70/64/83 71/64/83
f 56/64/84 57/64/84 98/64/84 97/64/84
f 54/64/85 55/64/85 96/64/85 95/64/85
f 52/64/86 53/64/86 94/64/86 93/64/86
f 57/64/87 58/64/87 99/64/87 98/64/87
f 55/64/88 56/64/88 97/64/88 96/64/88
f 53/64/89 54/64/89 95/64/89 94/64/89
f 51/64/90 52/64/90 93/64/90 92/64/90
f 58/64/91 51/64/91 92/64/91 99/64/91
f 53/64/102 52/64/102 100/64/102 102/64/102
f 54/64/104 53/64/104 102/64/104 103/64/104
f 55/64/105 54/64/105 103/64/105 104/64/105
usemtl マテリアル.002
f 68/64/66 73/64/66 108/64/66 112/64/66
f 85/64/69 74/64/69 113/64/69 110/64/69
f 73/64/78 88/64/78 111/64/78 108/64/78
f 101/64/92 107/64/92 111/64/92 115/64/92
f 100/64/93 101/64/93 115/64/93 114/64/93
f 103/64/94 102/64/94 110/64/94 113/64/94
f 105/64/95 104/64/95 109/64/95 112/64/95
f 107/64/96 106/64/96 108/64/96 111/64/96
f 102/64/97 100/64/97 114/64/97 110/64/97
f 104/64/98 103/64/98 113/64/98 109/64/98
f 106/64/99 105/64/99 112/64/99 108/64/99
f 88/64/100 89/64/100 115/64/100 111/64/100
f 80/64/101 85/64/101 110/64/101 114/64/101
f 79/64/103 68/64/103 112/64/103 109/64/103
f 89/64/106 80/64/106 114/64/106 115/64/106
f 74/64/107 79/64/107 109/64/107 113/64/107
